<svg width="28" height="28" viewBox="0 0 28 28" fill="none" xmlns="http://www.w3.org/2000/svg">
<rect width="28" height="28" rx="14" fill="black"/>
<path d="M17 14C16.9976 13.7369 16.8916 13.4854 16.705 13.3L14.56 11.15C14.4663 11.0568 14.3396 11.0046 14.2075 11.0046C14.0754 11.0046 13.9487 11.0568 13.855 11.15C13.8081 11.1965 13.7709 11.2518 13.7456 11.3127C13.7202 11.3736 13.7071 11.439 13.7071 11.505C13.7071 11.571 13.7202 11.6363 13.7456 11.6973C13.7709 11.7582 13.8081 11.8135 13.855 11.86L15.5 13.5H10.5C10.3674 13.5 10.2402 13.5526 10.1464 13.6464C10.0527 13.7402 10 13.8674 10 14C10 14.1326 10.0527 14.2598 10.1464 14.3535C10.2402 14.4473 10.3674 14.5 10.5 14.5H15.5L13.855 16.145C13.7608 16.2385 13.7077 16.3655 13.7072 16.4982C13.7068 16.6309 13.759 16.7583 13.8525 16.8525C13.946 16.9466 14.0731 16.9998 14.2057 17.0002C14.3384 17.0007 14.4658 16.9485 14.56 16.855L16.705 14.705C16.8928 14.5183 16.9989 14.2648 17 14V14Z" fill="white"/>
</svg>
