<svg width="10" height="19" viewBox="0 0 10 19" fill="none" xmlns="http://www.w3.org/2000/svg">
<path fill-rule="evenodd" clip-rule="evenodd" d="M4.32987 0.292773C2.8717 0.534965 1.64215 1.34604 0.857661 2.58325C-0.83662 5.25542 0.0686057 8.86599 2.78704 10.2786C3.2931 10.5415 3.83766 10.7212 4.3225 10.7851L4.61712 10.8239V12.9719V15.1199L3.51642 15.1207C2.3336 15.1216 2.21563 15.145 2.07633 15.4068C2.01257 15.5267 2.01056 15.5817 2.06503 15.7205C2.17107 15.9905 2.29212 16.0153 3.50565 16.0153H4.61712V17.1649C4.61712 18.311 4.61754 18.3151 4.74734 18.452C4.91327 18.6271 5.11665 18.6271 5.28257 18.452C5.41238 18.3151 5.4128 18.311 5.4128 17.1649V16.0153H6.52427C7.7378 16.0153 7.85885 15.9905 7.96488 15.7205C8.01936 15.5817 8.01735 15.5267 7.95359 15.4068C7.81429 15.145 7.69631 15.1216 6.5135 15.1207L5.4128 15.1199V12.9719V10.8239L5.70742 10.7851C7.37746 10.565 8.96506 9.28932 9.62299 7.63902C9.92843 6.87293 9.9986 6.48407 9.99998 5.55084C10.0014 4.57423 9.90922 4.08772 9.5806 3.33736C9.0528 2.13227 8.00976 1.08561 6.87241 0.619688C6.11842 0.310847 5.04907 0.173355 4.32987 0.292773ZM9.15741 6.27092C9.52867 4.02381 8.155 1.81716 6.0276 1.24324C5.46166 1.09053 4.53956 1.09171 3.98168 1.24576C1.49803 1.93166 0.152842 4.75006 1.12841 7.22391C1.78824 8.8971 3.30811 9.97163 5.01496 9.97163C7.07292 9.97163 8.80104 8.42777 9.15741 6.27092Z" fill="black"/>
</svg>
