<svg width="14" height="16" viewBox="0 0 14 16" fill="none" xmlns="http://www.w3.org/2000/svg">
<path fill-rule="evenodd" clip-rule="evenodd" d="M12.6842 0.172738C12.3368 0.155434 9.10212 0.770311 8.98011 0.87686C8.7743 1.05661 8.85534 1.48867 9.10845 1.56147C9.16122 1.57662 9.83268 1.48071 10.6006 1.34827L11.9969 1.10758L10.2241 3.63943L8.45124 6.17128L8.18586 6.03091C6.68539 5.23713 4.65837 5.3183 3.21281 6.22994C2.53774 6.65568 2.26679 6.9194 1.7528 7.65102C1.3481 8.22712 1.25065 8.39893 1.11668 8.7727C0.220704 11.2727 1.34003 14.0311 3.69902 15.1365C5.92899 16.1815 8.60672 15.4832 10.0021 13.4927C10.3724 12.9647 10.5646 12.5673 10.7474 11.952C11.2816 10.1544 10.7075 8.07701 9.33296 6.83412L9.11029 6.63276L10.8831 4.1009L12.6559 1.56905L12.9073 2.96342C13.0456 3.73039 13.185 4.39412 13.2173 4.43853C13.3723 4.65145 13.806 4.57986 13.9045 4.32498C13.9653 4.16777 13.4108 0.810581 13.2829 0.561392C13.1789 0.358713 12.9097 0.183966 12.6842 0.172738ZM8.96669 7.62924C10.0675 8.79616 10.419 10.5002 9.87182 12.017C9.65951 12.6055 9.08774 13.4207 8.62267 13.7981C7.6166 14.6145 6.36799 14.947 5.12554 14.7297C3.95232 14.5244 2.80025 13.7183 2.20702 12.6877C1.85494 12.0759 1.61758 11.2074 1.61802 10.5322C1.61873 9.47475 2.09417 8.33007 2.84666 7.57438C4.55228 5.86135 7.32244 5.88619 8.96669 7.62924Z" fill="black"/>
</svg>
